<?xml version="1.0" encoding="utf-8"?>
<!-- Generator: Adobe Illustrator 27.2.0, SVG Export Plug-In . SVG Version: 6.00 Build 0)  -->
<svg version="1.1" xmlns="http://www.w3.org/2000/svg" xmlns:xlink="http://www.w3.org/1999/xlink" x="0px" y="0px"
	 viewBox="0 0 300 300" style="enable-background:new 0 0 300 300;" xml:space="preserve">
<style type="text/css">
	.st0{display:none;}
	.st1{display:inline;}
	.st2{fill:#F5C71D;}
</style>
<g id="圖層_1" class="st0">
	<g class="st1">
		<path class="st2" d="M48.56,164.01c5.22,5.61,9.95,11.66,15.4,17.07c2.21,2.2,4.55,1.7,6.47,0.09c2.49-2.08,2.86-4.92,0.96-7.13
			c-3.76-4.38-7.51-8.78-11.48-12.96c-1.47-1.55-1.12-2.32,0.11-3.62c3.63-3.85,7.17-7.78,10.71-11.71
			c2.31-2.57,2.35-5.94,0.17-7.93c-2.18-2-5.59-1.8-7.87,0.67c-4.84,5.26-9.62,10.59-14.35,15.94c-1.19,1.35-1.89,2.99-1.51,4.91
			C46.73,161.16,47.44,162.8,48.56,164.01z"/>
		<path class="st2" d="M144.06,155.09c-4.91-5.52-9.71-11.14-14.65-16.63c-2.21-2.45-5.82-2.65-7.85-0.59
			c-1.87,1.89-2.42,4.81,0.07,7.7c3.51,4.06,7.09,8.08,10.87,11.87c1.59,1.6,1.31,2.3-0.09,3.78c-3.85,4.08-7.44,8.41-11.18,12.58
			c-1.96,2.18-1.63,5.51,0.96,7.58c2.19,1.76,4.54,1.6,6.84-0.89c4.98-5.38,9.89-10.82,14.75-16.31c1.18-1.33,1.94-2.97,1.56-4.84
			C145.53,157.71,145.18,156.34,144.06,155.09z"/>
		<path class="st2" d="M101.46,132.92c-3.15,0-4.55,1.09-5.21,4.12c-0.85,3.89-1.87,7.74-2.76,11.63
			c-2.35,10.26-5.03,20.45-7.55,30.67c-0.69,2.81,1.08,6.18,3.48,6.8c3.34,0.86,6.03-0.85,6.82-4.29c1.4-6.07,2.8-12.15,4.27-18.21
			c1.98-8.15,4.09-16.27,6.02-24.43C107.29,135.98,105.02,132.18,101.46,132.92z"/>
		<path class="st2" d="M95.65,215.65c-3.17,0.04-5.11,2.04-5.1,5.23c0.01,3.2,1.97,5.12,5.21,5.11c3.09-0.01,5.13-2.08,5.13-5.2
			C100.89,217.69,98.77,215.61,95.65,215.65z"/>
		<path class="st2" d="M280.44,198.86c-1.79-3.01-4.45-5.35-7.76-5.26c-3.56,0.09-4.67-1.56-5.55-4.3c-0.46-1.41-1.1-2.77-1.8-4.08
			c-0.61-1.14-0.51-1.87,0.44-2.86c5.23-5.48,5.07-11.61-0.29-17.03c-0.69-0.7-1.72-1.2-1.76-2.4c0.02-0.26,0.07-0.51,0.07-0.77
			c0-36.21,0.01-72.42-0.01-108.63c0-0.63,0.33-1.4-0.46-1.86c-0.05-3.04-0.51-5.99-1.43-8.93c-3.82-12.14-12.49-18.94-25.26-18.94
			c-64.18,0.01-128.36,0-192.54,0.01c-1.86,0-3.69,0.16-5.56,0.43c-12.1,1.69-20.74,13.42-20.79,24.67
			c-0.24,49.7-0.06,99.41-0.14,149.11c-0.01,9.39,3.4,17.12,10.5,23.08c3.6,3.02,7.84,5.08,12.81,4.81c11.03,0,22.05,0,33.08-0.01
			c2.89-1.34,3.83-2.83,3.63-5.83c-0.19-2.87-2.21-3.9-4.62-4.49c-0.53-0.63-1.26-0.43-1.92-0.43c-9.26-0.01-18.51-0.01-27.77,0
			c-0.66,0-1.39-0.22-1.91,0.43c-7.24,0.13-13.88-9.91-13.33-16.96c0.8-0.89,0.41-1.98,0.41-2.96c0.04-30.71,0.05-61.41,0.07-92.12
			c1.03-0.03,2.06-0.08,3.1-0.08c63.33,0,126.66-0.01,189.99,0c10.43,0,20.85,0.02,31.28,0.04l0.02-0.03
			c-0.02,17.4-0.04,34.79-0.06,52.19c-0.37,0.17-0.77,0.53-1.1,0.47c-2.82-0.51-5.46,0.08-7.57,1.9c-2,1.72-3.67,2.7-6.18,0.85
			c-1.21-0.89-2.89-1.2-4.4-1.61c-1.37-0.38-1.86-1.16-1.92-2.56c-0.25-6.62-3.59-10.3-10.27-11.47c0,0,0,0,0,0c0,0,0,0,0,0
			c-3.83-0.8-7.66-0.79-11.49-0.01c-4.75-0.22-10.12,4.01-10.7,9.36c-0.05,1.37-0.11,2.74-0.16,4.11c-2.6,0.8-5.15,1.73-7.52,3.1
			c-1,0.58-1.79,0.62-2.91-0.24c-2.07-1.58-4.13-3.44-7.03-3.39c-1.07-0.76-2.15-0.74-3.22,0c-1.81,0.03-3.4,0.63-4.91,1.63
			c-2.96,1.96-5.07,4.82-7.66,7.16c-5.18,4.67-6.08,12.85-0.34,17.87c0.54,0.47,1.09,0.83,0.6,1.85c-1.32,2.72-2.43,5.54-3.62,8.32
			c-1.08,0.03-2.22-0.47-3.2,0.39c-6.52,1.14-9.55,4.76-10.19,10.38c-0.05,3.78-0.1,7.57-0.15,11.35v0l0,0
			c-9.43,0.01-18.86,0.02-28.29,0.05c-0.9,0-1.9-0.33-2.7,0.42c-3.15,1.17-4.67,2.91-4.63,5.3c0.05,2.3,1.98,4.38,4.66,5.02
			c1.12,0.03,2.24,0.09,3.35,0.09c13.87,0.03,27.74,0.06,41.61,0.08c0.36,2.74,1.52,5.21,2.84,7.57c0.67,1.19,0.45,1.77-0.41,2.69
			c-1.76,1.88-3.15,4.03-3.35,6.73c0,1.38,0,2.75,0.01,4.13c0.35,2.38,1.32,4.4,3.1,6.08c2.19,2.07,4.36,4.18,6.39,6.39
			c4.57,4.98,11.84,5.27,16.64,0.32c0.81-0.84,1.6-1.15,2.71-0.67c2.73,1.17,5.48,2.3,8.22,3.44c0.05,1.03,0.1,2.05,0.16,3.08
			c1.68,7.27,5.46,10.32,12.84,10.32c3.01,0,6.02-0.15,9.02,0.03c4.76,0.29,10.66-4.95,10.66-10.32c0.99-0.94,0.35-2.09,0.41-3.15
			c2.28-1.33,5-1.61,7.23-3.08c1.29-0.85,2.34-0.61,3.57,0.53c4.24,3.91,9.5,4.83,14.77,1.15c3.47-2.43,6.38-5.51,8.99-8.72
			c3.75-4.6,4.13-9.89,0.56-14c-2.64-3.05-1.91-5.28-0.38-8.05c0.4-0.72,0.88-1.5,0.94-2.28c0.16-2.05,1.29-2.36,3.07-2.29
			c3.93,0.15,6.74-1.74,9.1-4.85c0.84-1.1,0.63-2.99,2.4-3.38c0-5.17,0-10.34,0-15.51C281.3,201.36,281.1,199.97,280.44,198.86z
			 M40.51,34.62c0.31-0.02,0.6-0.24,0.89-0.37c0.9,0.8,1.98,0.41,2.97,0.41c31.02,0.02,62.04,0.02,93.06,0.02
			c34.03-0.01,68.07-0.02,102.1-0.03c5.98,0.21,9.24,4.1,11.6,8.9c1.15,2.35,1.6,5.02,1.87,7.66c-0.04,13.79-0.08,27.57-0.12,41.36
			c-0.34,0.01-0.67,0.02-1.01,0.02c-73.85,0-147.7,0-221.55,0c-0.6,0-1.2-0.05-1.8-0.08c-0.01-13.05-0.01-26.09-0.05-39.14
			c0-0.9,0.4-1.9-0.41-2.69C27.91,44.5,32.85,35.24,40.51,34.62z M149.24,214.18c0,0.07,0,0.13,0,0.2c0.01,0.33-0.04,0.62-0.22,0.81
			c0,0-0.01-0.01-0.01-0.01C149.1,214.84,149.18,214.51,149.24,214.18z M271.09,215.18c-2.44,0.13-4.93-0.53-7.33,0.4
			c-2.37,0.57-3.97,1.91-4.49,4.38c-0.96,4.6-2.87,8.81-5.3,12.82c-1.77,2.92-1.35,5.45,1.05,7.97c1.34,1.4,3.61,2.77,3.72,4.27
			c0.13,1.84-2.39,3.1-3.81,4.55c-3.78,3.86-3.95,3.97-7.59-0.04c-2.71-2.99-6.07-3.24-10.22-0.61c-3.44,2.18-7.23,3.29-11.03,4.47
			c-2.17,0.67-4.19,1.35-4.26,4.12c-0.1,2.44,0.59,4.93-0.39,7.33c-0.17,0.17-0.34,0.34-0.51,0.51c-3.49,0.79-6.98,0.79-10.47,0
			c-0.18-0.18-0.36-0.36-0.54-0.54c-0.93-2.22-0.23-4.53-0.4-6.8c-0.24-2.62-1.75-4.04-4.25-4.6c-4.57-1.03-8.84-2.81-12.79-5.34
			c-2.44-1.56-5.7-1.19-7.8,0.92c-4.42,4.45-4.43,4.45-8.92-0.04c-4.04-4.04-4.13-4.13-0.05-7.98c2.99-2.82,3.47-4.9,0.88-8.95
			c-2.05-3.2-3.48-6.82-4.3-10.56c-0.62-2.83-1.72-5.02-4.68-5.86c-2.43-0.71-4.86-0.7-7.29-0.01c-0.67-0.01-0.39-0.61-0.57-0.92
			c0-3.46,0-6.92,0-10.39c0.2-0.19,0.4-0.38,0.59-0.57c2.42,0,4.83-0.01,7.25-0.01c0,0,0,0,0,0c2.41-0.65,3.58-2.29,4.19-4.68
			c1.16-4.51,3.03-8.75,5.34-12.81c1.65-2.91,1.17-5.05-1.21-7.47c-4.95-5.03-5.05-3.79,0.05-8.92c4.5-4.52,3.65-4.58,8.13,0.12
			c3.81,3.99,5.25,3.1,8.68,1c3.77-2.3,7.81-3.66,11.95-4.87c2.73-0.8,4.37-2.37,4.82-5.17c0.96-2.23,0.26-4.55,0.38-6.82
			c0.19-0.18,0.38-0.36,0.58-0.54c3.44,0.05,6.88,0.11,10.32,0.16c0.21,0.32,0.42,0.63,0.64,0.94c0,2.25,0,4.5,0,6.75
			c0.49,2.59,2.12,4.1,4.63,4.63c4.77,1.01,9.07,3.17,13.31,5.44c2.13,1.14,4.54,1.09,6.26-0.51c1.13-1.05,2.27-2.12,3.27-3.3
			c1.39-1.64,2.8-1.35,4.15-0.11c1.71,1.57,3.3,3.28,4.96,4.9c1.21,1.18,1.01,2.25-0.13,3.34c-1.18,1.13-2.29,2.34-3.48,3.46
			c-1.88,1.77-2.16,3.94-0.94,5.98c2.8,4.68,4.75,9.66,6.21,14.9c0.52,1.88,1.79,3.43,4.07,3.55c2.41,0.05,4.81,0.11,7.22,0.16
			c0,0,0,0,0,0c0,0,0,0,0,0c0.2,0.3,0.4,0.6,0.6,0.89c-0.01,3.32-0.01,6.64-0.02,9.96C271.42,214.84,271.25,215.01,271.09,215.18z"
			/>
		<path class="st2" d="M171.74,81.12c15.85,0,31.71,0,47.56,0c9.7,0.58,19.22-10.75,16.61-20.42c-2.4-8.91-8.05-14.02-16.02-14.16
			c-0.2-0.5-0.64-0.49-1.07-0.49c-15.87,0.03-31.73,0.06-47.6,0.09c-0.3,0.13-0.59,0.34-0.89,0.37c-7.51,0.59-14.04,6.6-15.04,14.53
			c0.68,1.72,0.68,3.45,0,5.17C155.97,74.37,164.27,81.65,171.74,81.12z M171.7,56.82c15.88,0,31.76,0,47.64,0
			c3.62,0.75,5.87,2.49,6.56,6.51c0.47,2.75-2.33,6.08-6.03,7.45c-16.06,0-32.11,0-48.17,0c-4.05-1.09-6.26-3.81-6.16-7.56
			C165.62,59.95,167.89,57.59,171.7,56.82z"/>
		<path class="st2" d="M109.16,81.12c1.55,0,3.1,0,4.65-0.01c8.78-1.19,16.53-10.87,14.57-20.57c-1.47-7.24-7.75-13.51-15.02-14.01
			c-1.42-0.78-2.83-0.77-4.25,0c-8.5,0.64-15.16,7.93-15.46,16.34C93.3,72.73,100.74,80.56,109.16,81.12z M111.17,56.91
			c3.95-0.02,6.79,2.83,6.79,6.8c0,3.6-3.33,7.15-6.71,7.16c-3.83,0.01-7.24-3.39-7.25-7.22C103.98,59.9,107.15,56.92,111.17,56.91z
			"/>
		<path class="st2" d="M63.66,81.11c1.55,0,3.1,0,4.65,0c4.98-0.85,9.06-3.24,11.87-7.44c3.51-5.26,4.38-11,1.72-16.84
			c-2.71-5.96-7.36-9.59-14.04-10.3c-1.42-0.8-2.83-0.74-4.25,0c-8.92,0.89-15.27,8.1-15.37,17.13
			C48.14,72.88,55.52,80.4,63.66,81.11z M59,63.69c0-4.11,2.66-6.79,6.74-6.78c3.79,0,7.34,3.23,7.2,6.74
			c-0.14,3.45-2.77,7.07-7.22,7.21C62.39,70.97,58.35,67.29,59,63.69z"/>
		<path class="st2" d="M220.34,178.35c-11.1-1.64-20.47,1.69-28.13,9.48c-5.2,5.29-7.92,12.02-8.51,19.5c0,1.58,0,3.16,0,4.74
			c0.24,1.38,0.44,2.77,0.72,4.15c1.68,8.28,6.21,14.74,12.98,19.61c4.66,3.35,9.87,5.41,15.7,5.58c1.55,0,3.1,0,4.65,0
			c0.68,0.03,1.4,0.2,2.05,0.06c7.81-1.69,14.71-4.9,19.96-11.28c4.49-5.47,7.26-11.5,7.51-18.62c0-1.25,0-2.49,0-3.74
			c0.19-4.22-1.04-8.14-2.9-11.82C239.37,186.1,231.58,180.02,220.34,178.35z M234.47,219.4c-4.04,7.56-10.48,11.43-18.87,11.7
			c-10.63,0.34-21.1-9.27-21.2-20.11c0-1.03,0-2.07,0-3.1c0.32-9.88,8.63-18,17.7-19.19c10.16-1.34,17.69,2.66,22.49,11.21
			C238.08,206.12,237.94,212.91,234.47,219.4z"/>
	</g>
</g>
<g id="圖層_2">
	<g>
		<path class="st2" d="M282.39,161.68c0.01-8.47,0.01-16.94,0-25.41c0-0.48,0.15-1.05-0.48-1.32c-0.23-3.67-2.84-6.08-6.69-6.18
			c-2.71-1.12-5.56-0.11-8.31-0.56c-0.18-0.89-0.48-1.78-0.53-2.68c-0.27-5.81-1.66-11.41-2.98-17.03
			c-1.48-6.31-3.73-12.36-6.26-18.34c-4.41-10.44-10.34-19.84-18.02-28.14c-6.63-7.16-14.36-12.9-22.98-17.46
			c0.52-0.85,1.37-0.56,2.1-0.56c7.74-0.01,15.47,0.01,23.21,0.03c0.16,0.2,0.39,0.38,0.46,0.6c2.26,8.04,11.23,14.78,19.98,14.44
			c13.61-0.53,22.87-13.01,19.78-25.65c-2.41-9.89-10.31-15.69-20.13-15.69c-9.01,0.01-17.06,4.86-20.03,15.34
			c-23.43,0.01-46.87,0.02-70.3,0.03l0.04-0.01c-0.38-2.93,0.56-5.93-0.53-8.82c-0.67-3.8-2.81-5.94-6.18-6.18
			c-0.27-0.63-0.84-0.48-1.32-0.48c-9.06,0.02-18.12,0.05-27.18,0.08c-3.61,0.79-6.01,2.8-6.67,6.58c-0.02,2.95-0.03,5.9-0.05,8.86
			l0,0c-23.77-0.02-47.54-0.04-71.31-0.06c-1.03-4.07-3.03-7.59-6.26-10.27c-5.09-4.23-10.89-5.93-17.53-4.7
			c-4.87,0.9-8.78,3.18-12.05,6.9c-2.25,2.56-3.2,5.69-4.58,8.64c0,0.34,0,0.69,0,1.03c0,0.17,0,0.34,0,0.52c0,2.07,0,4.14,0,6.21
			c0,0.17,0,0.34,0,0.52c0,0.34,0,0.69,0,1.03c0.55,1.18,0.39,2.51,0.88,3.72c5.83,14.3,25.11,17.88,35.7,5.59
			c2-2.32,2.99-5.2,4.76-7.62c0.42-0.33,0.92-0.44,1.45-0.44c7.66,0.06,15.32-0.16,23.01,0.11c-0.36,0.49-0.97,0.65-1.49,0.93
			c-9.7,5.17-17.99,12.09-24.95,20.55c-14.24,17.3-21.32,37.53-24,59.51c-0.11,0.86-0.15,1.72-0.85,2.37
			c-2.53,0.93-5.18,0.18-7.75,0.48c-4.96,1.12-6.37,2.65-6.49,7.35c-0.09,0-0.19,0.01-0.28,0.03c0,9.14,0,18.27,0,27.41L17.8,163
			l0.21-0.04c0.34,4.42,1.86,6.14,6.3,7.12c9.31,0,18.62,0,27.93,0.01c3.61-0.32,6.52-3.16,6.75-6.58c0.63-0.27,0.48-0.84,0.48-1.32
			c0.01-8.47,0.01-16.94,0-25.41c0-0.48,0.16-1.05-0.48-1.31c-0.15-4.01-2.6-5.91-6.21-6.74c-3.04-1.01-6.18-0.13-9.26-0.47
			c0.15-0.38,0.4-0.76,0.43-1.15c0.59-7.7,2.4-15.15,4.69-22.49c3.85-12.32,9.63-23.66,18.14-33.39
			c6.93-7.92,15.27-14.03,24.91-18.52c11.96-5.58,24.58-7.77,37.57-8.63c0.36,2.74-0.53,5.54,0.48,8.24
			c0.24,3.96,2.54,6.44,6.26,6.76c0.46,0.52,1.08,0.44,1.67,0.44c8.3,0.01,16.6,0.01,24.91,0c0.51,0,1.04,0.04,1.4-0.44
			c3.64,0.06,6.79-3.47,6.73-6.74c1.14-2.7,0.11-5.55,0.55-8.3c5.45-0.27,10.83,0.68,16.11,1.67c9.4,1.76,18.45,4.77,26.79,9.66
			c7.79,4.57,14.72,10.17,20.42,17.17c5.49,6.76,9.82,14.23,13.24,22.28c3.3,7.76,5.55,15.79,7.15,24.02
			c0.6,3.11,1.03,6.26,1.54,9.39c-3.09,0.05-6.19,0.1-9.28,0.16c-3.5,0.87-6.15,2.55-6.29,6.61c-0.52,0.46-0.43,1.08-0.43,1.67
			c0,8.2,0,16.41,0,24.61c0,0.59-0.06,1.21,0.43,1.68c0.22,3.95,2.54,6.45,6.26,6.78c0.45,0.54,1.08,0.44,1.67,0.44
			c8.22,0.01,16.44,0.01,24.65,0c0.58,0,1.22,0.13,1.66-0.43c3.77-0.13,6.7-3.07,6.72-6.74
			C282.54,162.73,282.39,162.16,282.39,161.68z M251.36,38.2c0.01-5.62,4.73-10.69,9.93-10.15c6.72,0.7,10.22,3.69,10.53,10.13
			c0.27,5.73-4.31,10.41-10.51,10.46C256.08,48.69,251.07,44.03,251.36,38.2z M38.05,48.69c-4.85,0.16-10.86-4.85-10.1-10.56
			c-0.04-7,5.34-10.16,10.18-10.01c5.71,0.17,9.83,3.72,9.95,9.46C48.21,44.12,44.01,48.49,38.05,48.69z M47.83,142.39
			c-0.03,4.55-0.02,9.1,0,13.65c0,1.02-0.04,2.07,0.5,3.01c-0.65-0.47-1.44-0.51-2.21-0.52c-5.06-0.05-10.13-0.06-15.19,0
			c-0.66,0.01-1.32,0.06-1.89,0.37c0.49-5.94,0.17-11.89,0.17-17.83c0-0.57-0.15-1.11-0.48-1.58c0.13,0.09,0.27,0.16,0.42,0.21
			c6.37,0.41,12.73,0.38,19.09,0.01C47.77,140.52,47.83,141.47,47.83,142.39z M160.23,28.59c-0.17,0.16-0.31,0.36-0.4,0.58
			c-0.59,5.92-0.22,11.84-0.2,17.76c0,0.4,0.1,0.77,0.29,1.12c-5.94-0.48-11.88-0.17-17.83-0.16c-0.57,0-1.11,0.15-1.58,0.47
			c0.08-0.12,0.14-0.24,0.19-0.37c0.44-6.37,0.37-12.75,0.02-19.12c0.66,0.37,1.42,0.39,2.17,0.39c4.89,0.04,9.78,0.04,14.68,0
			c0.94-0.01,1.91-0.01,2.66-0.74C160.23,28.55,160.23,28.57,160.23,28.59z M251.86,158.62c0.5-6.36,0.4-12.73,0.05-19.09
			c0.82,0.46,1.77,0.4,2.69,0.41c4.55,0.03,9.1,0.02,13.64,0c1.03,0,2.07,0.04,3.01-0.51c0.05-0.06,0.11-0.12,0.16-0.18
			c0.01,0,0.02,0,0.03,0v0c-0.65,0.68-0.69,1.55-0.7,2.41c-0.05,5.06-0.06,10.12,0,15.18c0.01,0.66,0.06,1.32,0.37,1.89
			c-5.94-0.48-11.89-0.17-17.83-0.17c-0.69,0-1.35,0.2-1.87,0.7c0-0.01,0-0.01,0-0.02C251.61,159.08,251.77,158.87,251.86,158.62z"
			/>
		<path class="st2" d="M200.13,187.56c-7.96-10.37-15.02-21.33-21.27-32.78c-7.35-13.47-13.69-27.4-17.86-42.23
			c-3.46-12.27-5.98-24.69-5.81-37.53c0.02-1.48-0.41-2.8-1.04-4.08c-1.32-2.67-3.82-2.32-6.03-2.05c-1.86,0.23-2.84,1.63-3.32,3.6
			c-1.06,4.36-0.31,8.79-0.87,13.2c-0.74,5.83-1.52,11.66-2.81,17.37c-3.09,13.64-7.95,26.72-13.92,39.34
			c-5.54,11.7-12.07,22.87-19.4,33.55c-5.77,8.41-11.73,16.67-18.59,24.25c-2.06,2.28-1.83,6.62,0.55,8.17
			c6.17,4,11.63,8.82,16.66,14.14c4.94,5.23,9.16,10.91,11.09,18c-2.18,1.2-4.56,0.1-6.8,0.61c-0.38,0.14-0.76,0.36-1.15,0.41
			c-5.8,0.71-10.7,5.5-10.84,11.89c-0.49,0.47-0.43,1.09-0.43,1.68c-0.01,6.14-0.01,12.28,0,18.42c0,0.58-0.1,1.21,0.43,1.66
			c-0.32,3.66,2.01,5.57,4.74,7.22c31.03,0,62.06,0,93.09,0c2.63-1.53,4.99-3.26,5.21-6.67v0c0.07-0.05,0.2-0.1,0.2-0.15
			c0.45-7.18,0.44-14.35,0-21.53c0-0.05-0.13-0.1-0.2-0.15c0.07-5.92-5.9-12.77-11.88-12.37c-2.53-1.14-5.21-0.12-7.79-0.56
			c0.56-3.99,2.6-7.36,4.75-10.6c5.92-8.88,13.9-15.67,22.42-21.94c3.44-2.54,3.52-5.1,1.14-8.03
			C206.93,196.15,203.47,191.91,200.13,187.56z M191.44,253.93c-0.05,6.03-0.09,12.05-0.14,18.08c-27.37,0.01-54.74,0.02-82.1,0.02
			c-0.05-6.03-0.1-12.05-0.15-18.08c0.2-1.57,1.4-2.07,2.67-2.49c0.55,0.58,1.28,0.42,1.95,0.42c25.06,0,50.12-0.01,75.17-0.02
			C190.52,251.53,190.8,252.96,191.44,253.93z M171.28,240.51c-0.25,0.65-0.82,0.51-1.3,0.51c-13.9-0.01-27.79-0.04-41.69-0.06
			c-1.58-8.53-5.79-15.73-11.25-22.31c-4.32-5.21-9.26-9.77-14.54-13.96c-1.6-1.27-1.67-2.05-0.22-3.75
			c4.92-5.75,9.32-11.92,13.56-18.18c7.82-11.55,14.9-23.53,20.81-36.18c4.92-10.54,9.18-21.33,12.29-32.55
			c0.18-0.65,0.43-1.07,1.21-1.26c9.65,33.68,26.91,63.25,48.73,90.35C186.44,213.06,174.98,223.91,171.28,240.51z"/>
		<path class="st2" d="M144.82,153.28c-0.06,2.76,2.64,5.51,5.42,5.52c2.41,0.01,4.92-2.73,4.92-5.39c0-3.03-1.93-4.93-5.05-4.96
			C147.07,148.43,144.89,150.41,144.82,153.28z"/>
		<path class="st2" d="M144.89,173.22c0,3.83,0,7.65,0,11.48c-0.48,0.31-0.92,0.76-1.45,0.9c-8.83,2.41-15.06,12.58-13.75,22.24
			c1.36,10,11.64,19.56,23.3,17.79c9.68-1.47,17.6-10.28,17.74-19.71c0,0,0,0,0,0c0-0.9,0-1.8-0.01-2.71
			c-0.36-2.99-1.14-5.83-2.63-8.49c-2.77-4.94-7.1-7.84-12.33-9.59c-1.19-1.53-0.46-3.3-0.56-4.95c-0.13-2.14-0.01-4.3,0-6.45
			c0,0,0,0,0,0c-0.04-0.92-0.05-1.75-0.79-2.57C151.08,167.49,146.76,168.39,144.89,173.22z M160.41,203.76
			c0.72,0.88,0.67,1.77,0.01,2.65c-1.24,4.67-3.85,7.96-8.87,8.84c-0.86,0-1.73,0-2.59-0.01c-4.72-0.28-8.52-4.47-8.87-8.87
			c0-0.86,0-1.72-0.01-2.59c0.57-5.03,3.61-7.74,8.33-8.87c1.05,0,2.1,0,3.15,0C156.31,196.07,159.41,198.86,160.41,203.76z"/>
	</g>
</g>
<g id="圖層_3" class="st0">
	<g class="st1">
		<path class="st2" d="M243.85,232.65c-3.23,0.07-5.33,2.14-5.28,5.25c0.04,3.18,2.57,5.68,5.64,5.55c2.52-0.1,5.17-2.87,5.17-5.41
			C249.37,235.13,246.77,232.59,243.85,232.65z"/>
		<path class="st2" d="M87.19,29c3.43,0.03,5.51-1.96,5.53-5.28c0.02-3.22-2.04-5.44-5.1-5.51c-2.83-0.06-5.6,2.5-5.71,5.26
			C81.82,26.06,84.6,28.98,87.19,29z"/>
		<path class="st2" d="M288.23,151.97c0-2.2-0.07-4.5-0.7-6.57c-2.53-8.45-9.16-14.09-18.12-14.35c-0.68-0.91-1.66-0.46-2.48-0.47
			c-5.11-0.06-10.22-0.05-15.33-0.07c-0.02-1.08-0.06-2.16-0.06-3.24c0-29.06,0-58.11-0.03-87.17c0-1.01,0.47-2.16-0.45-3.06
			c-0.13-1.92-0.44-3.79-1.09-5.62c-2.99-8.44-9.39-12.28-17.87-13.33c-0.86-0.75-1.89-0.43-2.85-0.43
			c-38.62-0.02-77.23-0.02-115.85,0c-0.96,0-2-0.32-2.85,0.44c-0.65,0.21-1.31,0.4-1.96,0.63c-2.06,0.71-3.66,3.14-3.43,5.19
			c0.27,2.39,2.58,4.75,4.86,4.96c1.08,0.03,2.16,0.1,3.23,0.1c38.62,0.01,77.24,0,115.86,0c0.99,0,1.98-0.06,2.96-0.09
			c0.29,0.19,0.57,0.51,0.88,0.54c4.57,0.52,6.41,3.63,7.32,7.64c-0.03,0.99-0.08,1.98-0.08,2.96c-0.01,21.51-0.01,43.02-0.02,64.53
			c-0.72,0.08-1.3-0.05-1.96-0.53c-8.66-6.23-17.39-12.37-26.06-18.59c-2.27-1.63-5.19-1.89-7.28-0.32
			c-3.78,2.83-7.53,5.7-11.29,8.55c-6.2,4.72-12.39,9.45-18.61,14.14c-1,0.75-1.86,1.5-3.26,0.01c-2.17-2.31-4.77-4.22-7.23-6.25
			c-7.01-5.79-14.07-11.53-21.07-17.34c-6.8-5.65-13.55-11.38-20.34-17.04c-1.64-1.37-5.36-1.47-7.16-0.07
			c-4.57,3.56-9.08,7.19-13.58,10.85c-7.03,5.72-14,11.51-21.03,17.22c-8.59,6.97-17.23,13.89-25.85,20.84
			c-1.05-0.73-0.51-1.82-0.51-2.72c-0.04-10.96-0.02-21.91-0.03-32.87c-0.02-14.46-0.06-28.91-0.09-43.37
			c-0.13-4.75,3.74-7.63,8.51-8.11c3.45-0.34,5.16-2.22,5.09-5.73c-0.06-3.03-2.2-4.93-5.52-5.11c-1.37-0.07-2.62,0.31-3.89,0.59
			c-9.03,1.99-15.35,9.76-14.98,18.32c-0.78,0.84-0.44,1.88-0.44,2.83c-0.02,32.88-0.02,65.75,0,98.63c0,0.95-0.35,1.99,0.44,2.83
			c-0.33,10.58,8.42,19.02,18.43,19.33c1.26,0.03,2.52,0.09,3.78,0.09c19.8,0.02,39.6,0.04,59.4,0.06l0.02-0.05
			c0,5.04,0,10.07,0,15.11l-0.02-0.05c-23.76,0.02-47.52,0.03-71.29,0.06c-8.1,0.01-16.2,0.06-24.3,0.08
			c-0.93,0.15-1.87,0.24-2.78,0.47c-4.55,1.13-8.46,3.17-11.56,6.9c-1.94,2.33-2.53,5.19-4.01,7.66c0,0.36,0,0.72,0,1.08
			c0,0.18,0,0.36,0,0.54c0,24.67,0,49.34,0,74c0.08,0.03,0.23,0.05,0.24,0.09c2.05,9.19,10.47,15.56,18.66,15.12
			c0.85,0.76,1.89,0.44,2.85,0.44c32.68,0.02,65.35,0.02,98.03,0c0.95,0,1.99,0.32,2.85-0.44c9.88,0.02,18.17-8.52,18.99-18.98
			c0.76-0.84,0.43-1.87,0.43-2.81c0.04-5.52,0.04-11.04,0.05-16.56c0.99-0.03,1.98-0.08,2.96-0.08c20.7,0,41.4,0,62.11-0.03
			c1,0,2.15,0.49,3.02-0.49c1.03-0.23,1.95-0.54,2.63-1.49c2.66-3.73,1.24-7.15-3.73-8.87c-0.92-0.88-2.05-0.44-3.08-0.44
			c-21.3-0.05-42.59-0.06-63.89-0.08c-0.02-11.29-0.03-22.58-0.07-33.87c0-0.95,0.35-1.98-0.44-2.82c-0.21-1.3-0.3-2.63-0.64-3.89
			c-1.18-4.27-3.19-7.95-6.74-10.85c-2.68-2.19-5.78-3.12-8.88-4.25c-0.01-8.22,0-16.44-0.05-24.66c0-0.94,0.39-1.98-0.42-2.81
			c0.67-4.25,3.28-6.48,7.43-7.09c0.72,0.03,1.43,0.08,2.15,0.08c33.44,0,66.87,0.01,100.31,0c7.64,0,15.28-0.05,22.92-0.07
			c5.38,1.03,8.04,4.12,8.05,9.92c0.06,23.64,0.09,47.28-0.02,70.92c-0.03,5.47-3.62,10.21-9.81,10.03
			c-1.64-0.05-3.24,0.41-4.2,2.13c-2.05,3.7-1.02,6.52,3.25,8.54c1.08,0,2.17,0,3.25,0c0.62,0.01,1.28,0.15,1.86,0
			c11.43-2.93,16.38-10.51,16.45-21.26C288.38,198.73,288.28,175.35,288.23,151.97z M206.19,97.82c1.27-0.97,2.17-1.71,4.05-0.33
			c9.85,7.22,19.9,14.17,29.88,21.21c0,0,0,0,0,0c0,0,0,0,0,0c0.02,3.95,0.04,7.9,0.06,11.84l-0.01-0.02
			c-13.69,0.04-27.37,0.07-41.06,0.11c-5.69-4.75-11.38-9.49-17.2-14.34C190.03,110.11,198.11,103.97,206.19,97.82z M142.51,195.38
			c-0.03,1.7-0.09,3.4-0.09,5.1c0.02,20.8,0.06,41.61,0.09,62.41c-1.05,2.62-1.67,5.47-4.55,6.95c-1.18,0.61-2.36,1.03-3.65,1.24
			c-0.99-0.03-1.97-0.09-2.96-0.09c-28.47,0-56.93-0.01-85.4,0c-5.12,0-10.23,0.05-15.35,0.08c-4.74-0.43-8.1-4.01-8.1-8.67
			c0-22.35,0-44.71,0-67.06c0-4.35,2.53-7.28,6.97-8.15c23.09,0.02,46.19,0.06,69.28,0.06c11.68,0,23.36-0.05,35.05-0.07
			C139.06,187.43,141.36,190.8,142.51,195.38z M125.63,149.4c-20.33,0.02-40.67,0.03-61,0.09c-0.91,0-1.98-0.51-2.76,0.46
			c-3.82-1.39-6.69-3.62-7.04-8.05c0-3.78,0-7.56,0-11.34l0,0v0c5.31-4.3,10.62-8.6,15.94-12.88c7.25-5.84,14.53-11.64,21.77-17.5
			c5.2-4.21,10.36-8.47,15.49-12.76c3.18-2.66,6.6-5.01,9.6-7.89c0.96-0.92,2.04-1.06,3.43,0.13c7.18,6.16,14.54,12.1,21.8,18.17
			c5.91,4.94,11.75,9.97,17.67,14.91c5.97,4.98,12.02,9.87,18.01,14.83c1.14,0.94,2.18,1.99,3.26,3c-11.69,0-23.37-0.01-35.06,0.03
			c-0.92,0-1.98-0.46-2.76,0.47C135.02,131.01,125.6,139.12,125.63,149.4z"/>
		<path class="st2" d="M247.81,172.09c-0.02-3.13,0.04-6.26-0.09-9.39c-0.09-2.09,0.58-4.25-0.45-6.27
			c-1.26-3.43-3.06-5.03-5.86-4.77c-2.69,0.24-5.36,0.75-8.03,1.2c-7.14,1.19-14.26,2.45-21.4,3.61c-6.79,1.1-13.59,2.11-20.39,3.17
			c-2.48-0.94-5.06-0.42-7.58-0.4c-2.7,0.03-5.46-0.59-8.12,0.41c-6.15,1.36-10.29,4.54-10.34,11.42c-0.74,5.05-0.74,10.09,0,15.14
			c-0.3,6.24,5.42,11.81,11.44,11.43c2.8,1.03,5.71,0.15,8.55,0.48l0,0c0.03,5.46,0.04,10.93,0.12,16.39
			c0.01,1.02-0.43,2.15,0.45,3.07c-0.36,3.24,1.99,4.26,4.34,5.29c3.87,0.03,7.74,0.13,11.61,0.04c1.74-0.04,3.57,0.56,5.24-0.44
			c3.05-0.11,4.03-2.33,4.82-4.73c1.6-4.84,3.18-9.68,4.79-14.51c0.16-0.49-0.17-1.6,0.83-1.27c2.42,0.82,4.96,0.85,7.43,1.29
			c4.98,0.9,9.97,1.73,14.98,2.38c4.17,0.54,6-0.91,7.14-4.78c0.83-0.71,0.46-1.67,0.47-2.51c0.06-5.1,0.06-10.2,0.08-15.3
			c2.86,0.36,5.92-2.71,5.85-5.74C253.6,174.76,252.08,171.85,247.81,172.09z M197,211.54C197,211.54,197,211.54,197,211.54
			c0.01,0.01,0.01,0.02,0.01,0.02L197,211.54z M197,211.54c0.01-4.3,0.02-8.6,0.03-12.9c2.08,0.75,4.28,0.78,6.44,1.04
			c2.01,0.24,3.18,0.8,2.17,3.21c-1.16,2.78-2.16,5.64-2.76,8.61C200.92,211.52,198.96,211.53,197,211.54z M176.36,186.19
			c0-5.04,0-10.08,0-15.12c0.21-0.21,0.42-0.42,0.63-0.63c2.86,0.05,5.73,0.11,8.59,0.16c0.19,0,0.38,0,0.57,0.01
			c-0.14-0.05-0.28-0.09-0.43-0.13c0.14-0.1,0.28-0.07,0.43,0.13c0,5.35,0,10.7,0,16.05l0,0c-0.19,0-0.38,0-0.57,0
			c-2.68,0.05-5.36,0.11-8.04,0.16C177.11,186.68,176.52,186.84,176.36,186.19z M185.73,186.79c0.14-0.05,0.28-0.08,0.42-0.13
			C186.01,186.86,185.87,186.89,185.73,186.79z M222.81,191.81c-5.2-0.76-10.4-1.48-15.57-2.41c-3.47-0.63-7.08-0.62-10.37-2.12
			c0.03-5.01,0.07-10.03,0.1-15.04c0.01-0.97-0.15-1.96,0.62-2.76c5.53-0.81,11.06-1.59,16.58-2.42c5.26-0.8,10.51-1.65,15.76-2.48
			c2.14-0.34,4.27-0.69,6.41-1.04c0,10.06,0.01,20.12,0.01,30.18C231.76,193.59,227.32,192.46,222.81,191.81z M236.34,193.72
			C236.34,193.72,236.34,193.72,236.34,193.72L236.34,193.72L236.34,193.72z"/>
		<path class="st2" d="M175.48,77.64c8.34-1.01,15.5-8.29,16.13-16.71c0-0.94,0-1.88,0.01-2.82c-0.16-9.79-9.25-17.53-18.83-17.29
			c-12.31,0.3-20.19,11.09-17.81,22.29C156.96,72.38,165.08,78.9,175.48,77.64z M173.21,51.69c4.14,0.01,7.61,3.59,7.55,7.78
			c-0.06,4.05-3.68,7.38-8,7.35c-4.4-0.03-7.17-3.22-7.12-8.2C165.68,54.49,168.76,51.68,173.21,51.69z"/>
		<path class="st2" d="M103.23,222.44c-6.77-3.57-13.41-7.39-20.26-10.79c-4.43-2.2-8.49-5.12-13.26-6.65
			c-3.02-0.96-5.76,0.64-6.61,3.87c0.63,0.56,0.44,1.32,0.44,2.01c0.01,11.99,0.01,23.98,0,35.97c0,0.69,0.21,1.45-0.44,2.01
			c2.06,4.47,4.53,5.58,8.6,3.18c10.84-6.42,21.61-12.96,32.27-19.68C108.3,229.63,107.74,224.82,103.23,222.44z M74.36,237.5
			c-0.86,0.47-0.52-0.37-0.52-0.56c-0.03-5.44-0.03-10.87-0.01-16.31c0-0.63-0.3-1.82,1.11-1.01c4.99,2.75,9.99,5.51,15.35,8.47
			C84.82,231.31,79.59,234.41,74.36,237.5z"/>
	</g>
</g>
<g id="圖層_4" class="st0">
	<g class="st1">
		<path class="st2" d="M144.66,147.96c8.26-11.38,13.28-23.93,13.68-38.13c0.97-0.81,0.4-1.85,0.43-2.81
			c-1.09-4.86-1.9-5.52-6.82-5.52c-18.83,0-37.66-0.04-56.49,0.06c-2.27,0.01-2.84-0.5-2.83-2.81c0.11-19.11,0.07-38.21,0.06-57.32
			c0-4.23-1.86-6.04-6.06-6.01c-1.1,0-2.2,0.01-3.3,0.01c-4.03,0.67-8.08,1.1-12.07,2.07C59.07,40.46,48.46,46.29,39.3,54.8
			c-7.94,7.38-13.63,16.34-17.45,26.39c-2.47,6.48-4.06,13.27-4.05,20.31c0,1.28-0.01,2.56-0.01,3.85c0,0.37,0,0.74,0,1.12
			c0,1.1,0,2.2,0.01,3.29c-0.44,4.65,0.71,9.16,1.79,13.56c2.67,10.95,7.89,20.75,15.33,29.18c7.95,9,17.5,15.91,29.02,19.72
			c1.99,0.66,2.35,1.66,2.33,3.51c-0.09,7.62-0.04,15.24-0.03,22.86c0,1.56,0.06,3.04,1.8,3.86c1.68,0.8,3.33,0.76,4.89-0.09
			c1.45-0.79,1.67-2.44,2.22-3.82c0.73-0.78,0.45-1.74,0.45-2.63c0.01-18.83,0.01-37.66,0-56.49c0-0.89,0.28-1.85-0.45-2.63
			c-0.1-0.34-0.19-0.69-0.32-1.02c-0.95-2.47-2.81-3.86-5.36-3.29c-2.49,0.55-3.36,2.47-3.3,5.14c0.16,7.71-0.01,15.43,0.1,23.15
			c0.03,2.2-0.39,3.09-2.6,1.94c-0.39-0.2-0.81-0.35-1.2-0.54c-11.46-5.51-20.58-13.51-27.21-24.48
			c-9.53-15.78-11.22-32.54-6.18-49.92c4.05-13.97,12.62-24.92,24.73-33.08c8.03-5.41,16.98-8.33,26.42-9.97
			c3.32-0.58,3.65-0.25,3.65,3.22c0,19.29,0.02,38.59-0.02,57.88c0,2.43,0.97,3.88,3.33,4.4c1.1,0.04,2.19,0.1,3.29,0.1
			c18.78,0.01,37.56-0.01,56.34,0.03c0.91,0,2.02-0.55,2.77,0.51c-0.22,2.06-0.26,4.16-0.69,6.18c-1.92,8.94-5.31,17.28-10.71,24.71
			c-5.86,8.06-13.08,14.62-21.99,19.15c-8.62,4.39-17.74,6.96-27.53,6.79c-3.53-0.06-4.83,1.28-4.8,4.58
			c0.03,2.74,1.68,4.25,4.72,4.21c2.9-0.04,5.78-0.04,8.69-0.45c6.65-0.94,13.05-2.62,19.15-5.37
			C127.78,165.52,137.31,158.08,144.66,147.96z"/>
		<path class="st2" d="M105.94,92.66c21.87,0.01,43.74,0.01,65.61,0c2.62,0,4.71-2.04,4.97-4.65c0.16-1.58-0.53-3.03-0.55-4.55
			c-0.1-6.51-1.62-12.71-3.77-18.83c-0.54-1.55-1.46-2.29-2.67-2.72c-1.85-0.66-3.76,0.02-4.95,1.31c-1.27,1.38-1.13,3.46-0.46,5.16
			c1.56,4.01,2.08,8.25,2.98,12.41c0.43,2,0.09,3.16-2.7,3.13c-17.18-0.18-34.37-0.13-51.55-0.04c-2,0.01-2.58-0.39-2.57-2.51
			c0.1-17.18,0.06-34.37,0.06-51.55c0-2.91,0.49-3.34,3.27-2.77c5.39,1.09,10.78,2.15,15.85,4.4c6.82,3.02,13.09,6.86,18.44,12.12
			c-3.69,0.31-7.43-0.56-11.09,0.47c-3.71,0.73-5.2,1.89-4.88,4.49c0.25,2.07,0.98,4.25,3.79,4.33c2.11,0.03,4.22,0.09,6.33,0.1
			c29.13,0.03,58.26,0.05,87.38,0.07c0.01,4.5,0.02,8.99,0.03,13.49c0,1.6,0.27,2.98,2.04,3.7c1.73,0.7,3.44,0.64,4.88-0.34
			c1.17-0.8,1.59-2.3,1.99-3.68c0.98-2.66,0.42-5.43,0.41-8.13c-0.02-3.17,0.59-6.38-0.41-9.51c-0.59-2.41-2.09-3.91-4.5-4.51
			c-0.78-0.73-1.74-0.45-2.63-0.45c-22.51-0.01-45.02-0.01-67.54,0c-0.89,0-1.85-0.28-2.63,0.45c-1.59-0.43-1.88-2.08-2.84-3.1
			c-7.27-7.66-15.62-13.76-25.41-17.75c-5.26-2.14-10.72-3.6-16.37-4.55c-3.14-0.53-6.28-0.14-9.41-0.88
			c-3.43-0.81-5.52,1.26-5.52,4.75c0,21.87-0.01,43.74,0,65.61C101.52,91.12,103.03,92.66,105.94,92.66z"/>
		<path class="st2" d="M100.83,255.91c-23.23-0.03-46.46-0.02-69.7,0c-2.79,0-5.27,2-5.11,4.31c0.16,2.47,1.35,4.6,5.09,4.55
			c11.57-0.13,23.14-0.05,34.71-0.05c11.66,0,23.32-0.06,34.99,0.03c3.42,0.03,4.71-1.51,5.08-4.3
			C106.25,257.73,104.17,255.91,100.83,255.91z"/>
		<path class="st2" d="M268.34,123.54c-23.04,0.02-46.08,0.01-69.12,0.01c-0.28,0-0.55-0.03-0.83,0.01
			c-2.82,0.36-4.86,2.38-4.79,4.7c0.08,2.54,2.09,4.11,5.3,4.11c11.57,0,23.13,0,34.7,0c11.66,0,23.31-0.01,34.97,0.01
			c1.94,0,3.61-0.39,4.43-2.37C274.45,126.56,272.61,123.54,268.34,123.54z"/>
		<path class="st2" d="M211.81,93.05c0.07,2.95,1.22,4.02,4.45,4.03c8.72,0.01,17.44,0,26.16,0c8.72,0,17.44,0.01,26.16,0
			c3.03-0.01,5.01-1.8,4.98-4.44c-0.03-2.2-2.29-4.35-4.84-4.36c-17.53-0.03-35.06-0.04-52.59,0
			C213.01,88.29,211.73,89.83,211.81,93.05z"/>
		<path class="st2" d="M100.74,220.61c-17.35-0.02-34.69-0.02-52.04,0c-3.26,0.01-4.57,1.4-4.54,4.56c0.03,3.16,1.15,4.24,4.51,4.24
			c8.72,0.01,17.44,0,26.16,0c8.63,0,17.25,0.01,25.88,0c3.28,0,5.04-1.55,5.19-4.5C106.02,222.77,103.51,220.61,100.74,220.61z"/>
		<path class="st2" d="M101.17,273.56c-14.68-0.06-29.35-0.05-44.03,0c-2.59,0.01-4.85,2.46-4.69,4.77c0.16,2.4,2.06,4.01,4.82,4.02
			c7.25,0.02,14.49,0.01,21.74,0.01c7.34,0,14.68-0.07,22.02,0.04c3.08,0.05,4.68-1.65,4.86-4.51
			C106.06,275.27,104.22,273.58,101.17,273.56z"/>
		<path class="st2" d="M220.14,114.72c7.25,0,14.49-0.09,21.74,0.04c3.45,0.06,4.95-1.6,5.18-4.48c0.22-2.69-1.74-4.36-4.95-4.37
			c-14.49-0.04-28.99-0.03-43.48,0c-2.72,0.01-5.07,2.18-5,4.46c0.08,2.7,1.96,4.34,5.05,4.35
			C205.83,114.73,212.99,114.72,220.14,114.72z"/>
		<path class="st2" d="M25.97,242.71c0.05,2.69,1.95,4.35,5.05,4.35c7.25,0.01,14.49,0,21.74,0c7.25,0,14.49,0.01,21.74,0
			c2.79,0,4.38-1.57,4.41-4.25c0.02-2.83-1.56-4.55-4.44-4.55c-14.49-0.03-28.99-0.03-43.48,0
			C28.26,238.27,25.93,240.42,25.97,242.71z"/>
		<path class="st2" d="M271.15,149.47c2.05-1.49,2.35-3.61,1.72-5.58c-0.65-2.03-2.75-2.68-4.84-2.69
			c-14.32-0.02-28.63-0.03-42.95,0c-2.73,0.01-5.23,2.18-4.96,4.45c0.3,2.56,1.44,4.45,4.96,4.39c7.25-0.12,14.5-0.04,21.75-0.04
			c7.25,0,14.5,0.01,21.75-0.01C269.45,150,270.27,150.11,271.15,149.47z"/>
		<path class="st2" d="M41.26,273.99c-3.9-0.89-7.8-0.56-11.65-0.25c-2.16,0.17-3.86,2.15-3.55,4.53c0.34,2.59,1.5,4.19,4.63,4.1
			c1.46-0.05,2.93-0.01,4.4-0.01c1.74-0.01,3.49,0.09,5.22-0.03c2.48-0.17,3.7-1.93,3.77-4.1
			C44.13,276.44,43.78,274.56,41.26,273.99z"/>
		<path class="st2" d="M270.63,106.35c-3.89-0.88-7.78-0.46-11.64-0.28c-2.03,0.09-3.91,3.11-3.61,4.87
			c0.41,2.36,2.14,3.74,4.77,3.77c1.46,0.02,2.93,0,4.39,0c1.74-0.01,3.48,0.09,5.21-0.03c2.51-0.17,3.63-2.03,3.73-4.14
			C273.56,108.76,273.11,106.92,270.63,106.35z"/>
		<path class="st2" d="M101.59,238.29c-3.19-0.16-6.41-0.15-9.6,0.01c-2.27,0.11-4.42,2.62-4.26,4.6c0.21,2.48,2.04,4.12,4.66,4.17
			c1.46,0.02,2.93,0,4.39,0c1.46,0,2.93,0.02,4.39,0c2.26-0.03,4.07-1.59,4.21-3.61C105.57,240.5,104.18,238.42,101.59,238.29z"/>
		<path class="st2" d="M198.29,150.01c1.46,0.02,2.92,0,4.39,0c1.46,0,2.93,0.02,4.39,0c2.29-0.04,4.06-1.59,4.18-3.64
			c0.18-2.95-1.21-5.01-3.81-5.14c-3.19-0.16-6.4-0.15-9.59,0.01c-2.27,0.11-4.28,2.49-4.24,4.63
			C193.64,148.19,195.65,149.97,198.29,150.01z"/>
		<path class="st2" d="M279.39,273.95c-2.57-0.68-5.07-0.35-7.58-0.34c-2.08,0.01-2.73-0.43-2.72-2.66
			c0.1-17.82,0.06-35.64,0.06-53.46c0-3.75-1.93-5.7-5.62-5.71c-5.42-0.01-10.84-0.03-16.26,0.01c-2.88,0.02-4.39,1.49-4.68,4.41
			c-0.81,0.96-0.44,2.11-0.44,3.17c-0.03,18.03-0.02,36.06-0.02,54.08c-2.02,0.03-4.04-0.05-6.04,0.12
			c-1.77,0.15-2.29-0.39-2.27-2.22c0.1-8.89,0.05-17.79,0.04-26.69c0-4.65-1.73-6.42-6.28-6.42c-5.14,0-10.27-0.02-15.41,0.01
			c-3.25,0.02-4.77,1.56-4.78,4.76c0,7.61,0.05,15.22-0.03,22.83c-0.02,2.53,1.16,6.1-0.51,7.3c-1.74,1.26-5.09,0.29-7.74,0.3
			c0-12.24,0.01-24.48-0.02-36.72c0-0.97,0.32-2.02-0.45-2.89c-0.72-2.57-2.2-4.37-5.05-4.4c-5.69-0.06-11.38-0.05-17.07,0
			c-2.88,0.03-4.43,1.66-4.43,4.55c-0.01,11.02-0.01,22.03-0.01,33.05c0,6.6,0,6.54-6.73,6.54c-1.65,0-2.17-0.34-2.14-2.09
			c0.12-6.42,0.07-12.85,0.04-19.28c-0.02-2.98-2.11-5.11-5.07-5.13c-5.6-0.04-11.2-0.04-16.8,0c-2.88,0.02-4.39,1.49-4.68,4.4
			c-0.77,0.86-0.44,1.91-0.44,2.87c-0.03,6.36-0.02,12.72-0.02,19.09c-2.84,0.03-5.69,0.1-8.53,0.09c-3.42-0.02-5.72,4.11-3.88,6.81
			c1.27,1.86,2.75,2.03,4.59,2.03c49.51-0.01,99.01,0,148.52,0c0.46,0,0.92,0,1.38-0.01c2.59-0.04,3.77-1.85,3.95-3.95
			C282.43,276.52,281.99,274.64,279.39,273.95z M154.47,272.15c0.01,1.07-0.32,1.54-1.4,1.39c-0.09-0.01-0.18-0.01-0.28,0
			c-7.17,0.36-7.17,0.36-7.17-6.89c0-0.73,0-1.47,0-2.2c0-0.64,0-1.29,0-1.93c0-7.29,0-7.27,7.44-6.65c1.05,0.09,1.41,0.34,1.4,1.41
			C154.43,262.23,154.43,267.19,154.47,272.15z M189.79,271.33c0.02,1.8-0.45,2.4-2.26,2.24c-2.01-0.18-4.04-0.1-6.05-0.13
			c0-11.7,0-23.41,0-35.11c2.65,0.01,6.01-0.96,7.75,0.31c1.65,1.21,0.48,4.79,0.5,7.32C189.79,254.42,189.69,262.88,189.79,271.33z
			 M216.77,273.45c0-8.76,0-17.52,0-26.29c2.57,0,5.14,0,7.71,0c0,8.76,0,17.52,0,26.29C221.91,273.45,219.34,273.45,216.77,273.45z
			 M252.03,273.14c-1.65-1.21-0.49-4.79-0.5-7.32c-0.05-14.24,0.02-28.49-0.08-42.73c-0.01-2.06,0.47-2.75,2.54-2.52
			c1.91,0.21,3.85,0.1,5.78,0.13c0,17.58,0,35.17,0,52.75C257.12,273.44,253.76,274.4,252.03,273.14z"/>
		<path class="st2" d="M234.94,201.97c3.47-2.17,6.62-4.88,9.82-7.46c2.17-1.75,4.25-2.8,6.95-0.99c0.62,0.42,1.58,0.99,2.56,0.52
			c1.28-0.69,2.56-0.7,3.85,0c5.81-0.72,11.38-7.31,10.6-14.81c-1.03-9.87-12.61-14.15-20.27-9.35c-5.15,3.22-6.31,8.03-5.68,13.54
			c0.15,1.33-0.21,1.78-1.19,2.49c-4.13,2.97-8.19,6.05-12.19,9.18c-1.09,0.85-1.87,1.09-3.25,0.48
			c-5.13-2.26-10.39-1.98-14.36,1.93c-2.4,2.36-4.34,2.38-6.99,1.6c-1.53-0.45-3.15-0.64-4.64-1.18c-1.02-0.37-1.87-0.81-2.2-2.34
			c-1.87-8.79-11.99-12.67-19.37-8.56c-5.5,3.06-7.17,8.04-6.41,13.99c0.16,1.25-0.1,1.82-1.1,2.54c-4.13,2.96-8.21,6.01-12.21,9.14
			c-1.19,0.93-2,1.06-3.47,0.43c-1.83-0.79-4.01-1.44-5.95-1.25c-9.63,0.96-14.51,7.77-12.17,17.09c1.6,6.35,6.56,9.21,13.91,9.34
			c5.16,0.1,13.25-6.79,11.64-14.76c-0.29-1.44-0.28-2.71,1.5-3.85c3.91-2.49,7.55-5.41,11.15-8.35c1.28-1.05,2.18-1.42,3.82-0.74
			c6,2.46,11.41,1.51,15.85-3.42c0.78-0.86,1.61-1.16,2.65-0.83c2.11,0.67,4.23,1.27,6.44,1.59c2.07,0.3,3.13,1.39,3.83,3.62
			c2.52,7.98,9.89,10.88,16.9,8.35c6.28-2.27,9.14-7.93,8.4-13.83C233.16,204.56,233.04,203.16,234.94,201.97z M255.52,176.5
			c2.35-0.11,4.25,1.86,4.26,4.43c0,2.43-1.72,4.31-4.01,4.38c-2.41,0.08-4.26-1.84-4.26-4.42
			C251.51,178.43,253.17,176.61,255.52,176.5z M149.66,229.42c-2.42-0.03-4.02-1.75-4.03-4.35c-0.01-2.59,1.88-4.57,4.24-4.46
			c2.38,0.11,4.03,1.92,4.03,4.4C153.9,227.76,152.26,229.46,149.66,229.42z M184.73,202.96c-2.26-0.03-3.83-1.9-3.81-4.55
			c0.02-2.39,1.87-4.29,4.16-4.26c2.43,0.04,4.12,1.92,4.11,4.59C189.18,201.25,187.35,202.99,184.73,202.96z M220.44,211.78
			c-2.42,0.06-4.23-1.85-4.23-4.46c0.01-2.44,1.73-4.29,4.05-4.35c2.38-0.07,4.23,1.89,4.22,4.46
			C224.48,209.85,222.74,211.72,220.44,211.78z"/>
	</g>
</g>
</svg>
